# Blender v2.90.1 OBJ File: 'Proyecto Final.blend'
# www.blender.org
mtllib avioncito.mtl
o Regular_Plane_Plane
v -76.379333 72.823265 167.368668
v -76.356812 72.823265 167.368668
v -36.072121 72.823280 57.782452
v -74.702126 72.823280 57.782452
v -76.433968 72.823265 167.368668
v -76.433968 53.861710 57.782448
v -76.488594 72.823265 167.368668
v -78.165810 72.823280 57.782452
v -116.795815 72.823280 57.782452
v -76.511124 72.823265 167.368668
v -76.262222 72.698143 167.373367
v -74.587730 72.695625 57.787090
v -36.072121 72.651840 57.782452
v -76.356812 72.651825 167.368668
v -76.433968 72.657684 167.439575
v -76.433968 53.696098 57.853394
v -76.605713 72.698143 167.373367
v -76.511124 72.651825 167.368668
v -116.795815 72.651840 57.782452
v -78.280205 72.695625 57.787090
vt 0.327572 0.633212
vt 0.168708 0.794079
vt 0.168708 0.633212
vt 0.284876 0.160895
vt 0.287750 0.391774
vt 0.284876 0.391774
vt 0.151950 0.899858
vt 0.452597 0.595421
vt 0.151950 0.595421
vt 0.264599 0.142174
vt 0.268543 0.458999
vt 0.268543 0.142174
vt 0.262736 0.189594
vt 0.374091 0.302352
vt 0.374091 0.189594
vt 0.341685 0.341522
vt 0.345392 0.043774
vt 0.341685 0.043774
vt 0.222707 0.234746
vt 0.423521 0.438091
vt 0.222707 0.438091
vt 0.735053 0.181427
vt 0.732166 0.413322
vt 0.732166 0.181427
vt 1.000000 0.000000
vt 0.012448 0.000000
vt 1.000000 0.000000
vt 0.497413 -0.025610
vt 0.497413 0.974391
vt 0.497413 0.974391
vt 0.480178 0.500615
vt 0.492626 0.500615
vt 0.480178 0.500615
vt 0.012448 0.000000
vt 0.000000 0.000000
vt 1.000000 1.000000
vt 0.012448 1.000000
vt 0.012448 1.000000
vt 0.012448 0.000000
vt 1.000000 0.000000
vt 0.012448 0.000000
vt 0.503816 1.022408
vt 0.503816 0.022408
vt 0.503816 0.022408
vt 0.499385 0.500615
vt 0.511833 0.500615
vt 0.511833 0.500615
vt 0.000000 0.000000
vt 1.016006 0.497413
vt 0.028454 0.497413
vt 1.016006 0.497413
vt 0.327572 0.794079
vt 0.287750 0.160895
vt 0.452597 0.899858
vt 0.264599 0.458999
vt 0.262736 0.302352
vt 0.345392 0.341522
vt 0.423521 0.234746
vt 0.735053 0.413322
vt 0.497413 -0.025610
vt 0.492626 0.500615
vt 1.000000 1.000000
vt 1.000000 0.000000
vt 0.503816 1.022408
vt 0.499385 0.500615
vt 0.028454 0.497413
vn 0.0000 1.0000 0.0000
vn -0.1084 0.9941 -0.0017
vn -0.9957 0.0912 -0.0157
vn -0.9957 0.0909 -0.0157
vn 0.1084 0.9941 -0.0017
vn 0.9957 0.0912 -0.0157
vn -0.5087 0.8404 -0.1869
vn -0.0015 -1.0000 -0.0001
vn -0.4280 0.8900 -0.1573
vn 0.9951 -0.0977 0.0154
vn 0.3628 -0.9182 0.1588
vn 0.2855 -0.9444 0.1634
vn 0.5087 0.8404 -0.1869
vn 0.0015 -1.0000 -0.0001
vn 0.0011 -1.0000 0.0000
vn -0.3628 -0.9182 0.1588
vn -0.9951 -0.0977 0.0154
vn -0.2855 -0.9444 0.1634
vn 0.0205 0.0529 0.9984
vn 0.0538 0.0031 -0.9985
vn 0.0498 0.0000 -0.9988
vn 0.9386 0.0000 0.3450
vn 0.9699 -0.0950 -0.2242
vn 0.0384 -0.0035 -0.9993
vn 0.9704 -0.0951 -0.2219
vn 0.1317 0.3532 0.9262
vn 0.2163 0.3231 0.9213
vn 0.2814 0.2977 0.9122
vn -0.0001 -0.0001 -1.0000
vn -0.0000 -0.0362 -0.9993
vn 0.0000 -0.0363 -0.9993
vn -0.0355 0.0047 0.9994
vn -0.0522 0.0068 -0.9986
vn -0.0467 0.0061 -0.9989
vn -0.9386 0.0000 0.3450
vn -0.9699 -0.0950 -0.2242
vn -0.0384 -0.0035 -0.9993
vn -0.0368 -0.0034 -0.9993
vn -0.1317 0.3532 0.9262
vn -0.2163 0.3231 0.9213
vn 0.0000 0.3936 0.9193
vn 0.0001 -0.0001 -1.0000
vn 0.0001 0.0000 -1.0000
vn 0.9957 0.0909 -0.0157
vn -0.0011 -1.0000 0.0000
vn 0.9952 -0.0967 0.0152
vn 0.4280 0.8900 -0.1573
vn -0.9952 -0.0967 0.0152
vn 0.0000 0.0375 0.9993
vn 0.0368 -0.0034 -0.9993
vn 0.0000 0.3937 0.9192
vn -0.0001 0.0000 -1.0000
vn 0.0000 0.0000 1.0000
vn -0.9704 -0.0951 -0.2219
vn -0.2814 0.2978 0.9122
usemtl Material.004
s 1
f 2/1/1 4/2/1 1/3/1
f 5/4/2 4/5/3 6/6/4
f 8/7/1 10/8/1 7/9/1
f 5/10/5 8/11/6 7/12/1
f 11/13/7 13/14/8 14/15/9
f 16/16/10 11/17/11 15/18/12
f 17/19/13 19/20/14 20/21/15
f 17/22/16 16/23/17 15/24/18
f 2/25/19 11/26/20 14/27/21
f 2/28/22 13/29/22 3/30/22
f 6/31/23 12/32/24 16/33/25
f 1/34/26 15/35/27 11/26/28
f 3/36/29 12/37/30 4/38/31
f 7/39/32 18/40/33 17/41/34
f 9/42/35 18/43/35 10/44/35
f 6/45/36 20/46/37 8/47/38
f 7/39/39 15/35/40 5/48/41
f 9/49/42 20/50/30 19/51/43
f 2/1/1 3/52/1 4/2/1
f 5/4/2 1/53/1 4/5/3
f 8/7/1 9/54/1 10/8/1
f 5/10/5 6/55/44 8/11/6
f 11/13/7 12/56/45 13/14/8
f 16/16/10 12/57/46 11/17/11
f 17/19/13 18/58/47 19/20/14
f 17/22/16 20/59/48 16/23/17
f 2/25/19 1/34/49 11/26/20
f 2/28/22 14/60/22 13/29/22
f 6/31/23 4/61/50 12/32/24
f 1/34/26 5/48/51 15/35/27
f 3/36/29 13/62/52 12/37/30
f 7/39/32 10/63/53 18/40/33
f 9/42/35 19/64/35 18/43/35
f 6/45/36 16/65/54 20/46/37
f 7/39/39 17/41/55 15/35/40
f 9/49/42 8/66/31 20/50/30
