# Blender v2.90.1 OBJ File: 'Proyecto Final.blend'
# www.blender.org
mtllib barquito.mtl
o Cubo.004_Cubo
v -92.774055 71.575638 61.036568
v -101.744423 47.276215 52.066200
v -55.988014 71.575638 61.036568
v -47.017654 47.276215 52.066193
v -92.774048 71.575638 132.479507
v -101.744415 47.276215 141.449875
v -55.988014 71.575638 132.479507
v -47.017639 47.276215 141.449875
v -47.017654 71.575638 52.066193
v -101.744423 71.575638 52.066200
v -47.017639 71.575638 141.449875
v -101.744415 71.575638 141.449875
v -55.988014 63.210014 61.036568
v -92.774055 63.210014 61.036568
v -55.988014 63.210014 132.479507
v -92.774048 63.210014 132.479507
v -78.097221 62.177570 97.039764
v -78.097221 112.184082 97.039764
v -78.078011 62.177570 96.844681
v -78.078011 112.184082 96.844681
v -78.021103 62.177570 96.657089
v -78.021103 112.184082 96.657089
v -77.928696 62.177570 96.484200
v -77.928696 112.184082 96.484200
v -77.804329 62.177570 96.332664
v -77.804329 112.184082 96.332664
v -77.652794 62.177570 96.208298
v -77.652794 112.184082 96.208298
v -77.479904 62.177570 96.115891
v -77.479904 112.184082 96.115891
v -77.292313 62.177570 96.058983
v -77.292313 112.184082 96.058983
v -77.097221 62.177570 96.039772
v -77.097221 112.184082 96.039772
v -76.902130 62.177570 96.058983
v -76.902130 112.184082 96.058983
v -76.714539 62.177570 96.115891
v -76.714539 112.184082 96.115891
v -76.541656 62.177570 96.208298
v -76.541656 112.184082 96.208298
v -76.390121 62.177570 96.332664
v -76.390121 112.184082 96.332664
v -76.265755 62.177570 96.484200
v -76.265755 112.184082 96.484200
v -76.173340 62.177570 96.657089
v -76.173340 112.184082 96.657089
v -76.116440 62.177570 96.844681
v -76.116440 112.184082 96.844681
v -76.097221 62.177570 97.039772
v -76.097221 112.184082 97.039772
v -76.116440 62.177570 97.234863
v -76.116440 112.184082 97.234863
v -76.173340 62.177570 97.422455
v -76.173340 112.184082 97.422455
v -76.265755 62.177570 97.595337
v -76.265755 112.184082 97.595337
v -76.390121 62.177570 97.746872
v -76.390121 112.184082 97.746872
v -76.541656 62.177570 97.871239
v -76.541656 112.184082 97.871239
v -76.714539 62.177570 97.963654
v -76.714539 112.184082 97.963654
v -76.902130 62.177570 98.020554
v -76.902130 112.184082 98.020554
v -77.097229 62.177570 98.039764
v -77.097229 112.184082 98.039764
v -77.292313 62.177570 98.020554
v -77.292313 112.184082 98.020554
v -77.479904 62.177570 97.963654
v -77.479904 112.184082 97.963654
v -77.652794 62.177570 97.871239
v -77.652794 112.184082 97.871239
v -77.804329 62.177570 97.746872
v -77.804329 112.184082 97.746872
v -77.928696 62.177570 97.595337
v -77.928696 112.184082 97.595337
v -78.021103 62.177570 97.422455
v -78.021103 112.184082 97.422455
v -78.078011 62.177570 97.234863
v -78.078011 112.184082 97.234863
v -79.077660 110.374680 63.369537
v -74.026871 110.374680 63.369537
v -79.077652 145.468048 98.462906
v -79.077652 110.374680 98.462906
v -74.026871 145.468048 98.462906
v -74.026871 110.374680 98.462906
v -79.077660 110.374680 63.369537
v -79.077652 145.468048 98.462906
v -74.026871 145.468048 98.462906
v -74.026871 110.374680 63.369537
vt 0.959632 -0.669264
vt 0.542316 -0.251948
vt 0.542316 -0.669264
vt 0.959632 -0.251948
vt 0.542316 0.165368
vt 0.959632 0.165368
vt 0.542316 0.582684
vt 0.959632 0.582684
vt 0.542316 1.000000
vt 0.500435 0.514281
vt 0.500435 0.233771
vt 0.500435 0.233771
vt 1.376948 0.165368
vt 0.166881 0.514281
vt 0.125000 0.165368
vt 0.166881 0.233771
vt 0.125000 0.582684
vt 0.166881 0.514281
vt 0.166881 0.233771
vt 0.167372 0.527073
vt 0.499944 0.501488
vt 0.499944 0.501488
vt 1.000000 1.000000
vt 0.968750 0.500000
vt 1.000000 0.500000
vt 0.968750 1.000000
vt 0.937500 0.500000
vt 0.937500 1.000000
vt 0.906250 0.500000
vt 0.906250 1.000000
vt 0.875000 0.500000
vt 0.875000 1.000000
vt 0.843750 0.500000
vt 0.843750 1.000000
vt 0.812500 0.500000
vt 0.812500 1.000000
vt 0.781250 0.500000
vt 0.781250 1.000000
vt 0.750000 0.500000
vt 0.750000 1.000000
vt 0.718750 0.500000
vt 0.718750 1.000000
vt 0.687500 0.500000
vt 0.687500 1.000000
vt 0.656250 0.500000
vt 0.656250 1.000000
vt 0.625000 0.500000
vt 0.625000 1.000000
vt 0.593750 0.500000
vt 0.593750 1.000000
vt 0.562500 0.500000
vt 0.562500 1.000000
vt 0.531250 0.500000
vt 0.531250 1.000000
vt 0.500000 0.500000
vt 0.500000 1.000000
vt 0.468750 0.500000
vt 0.468750 1.000000
vt 0.437500 0.500000
vt 0.437500 1.000000
vt 0.406250 0.500000
vt 0.406250 1.000000
vt 0.375000 0.500000
vt 0.375000 1.000000
vt 0.343750 0.500000
vt 0.343750 1.000000
vt 0.312500 0.500000
vt 0.312500 1.000000
vt 0.281250 0.500000
vt 0.281250 1.000000
vt 0.250000 0.500000
vt 0.250000 1.000000
vt 0.218750 0.500000
vt 0.218750 1.000000
vt 0.187500 0.500000
vt 0.187500 1.000000
vt 0.156250 0.500000
vt 0.156250 1.000000
vt 0.125000 0.500000
vt 0.125000 1.000000
vt 0.093750 0.500000
vt 0.093750 1.000000
vt 0.062500 0.500000
vt 0.341844 0.028269
vt 0.471731 0.158156
vt 0.341844 0.471731
vt 0.062500 1.000000
vt 0.031250 0.500000
vt 0.031250 1.000000
vt 0.000000 0.500000
vt 0.550447 0.383337
vt 0.703179 0.485389
vt 0.796822 0.014612
vt 0.625000 0.750000
vt 0.625000 1.000000
vt 0.375000 0.750000
vt 0.625000 0.500000
vt 0.375000 0.750000
vt 0.375000 0.500000
vt 0.625000 0.250000
vt 0.625000 0.000000
vt 0.625000 0.250000
vt 0.875000 0.500000
vt 0.375000 0.000000
vt 0.375000 0.250000
vt 0.375000 0.500000
vt 0.959632 1.000000
vt 0.500435 0.514281
vt 1.376948 0.582684
vt 0.167372 0.527073
vt 0.296822 0.485388
vt 0.250000 0.490000
vt 0.203179 0.485389
vt 0.158156 0.471731
vt 0.116663 0.449553
vt 0.080295 0.419706
vt 0.050447 0.383337
vt 0.028269 0.341844
vt 0.014612 0.296822
vt 0.010000 0.250000
vt 0.014611 0.203179
vt 0.028269 0.158156
vt 0.050447 0.116663
vt 0.080294 0.080294
vt 0.116663 0.050447
vt 0.158156 0.028269
vt 0.203178 0.014612
vt 0.296822 0.014612
vt 0.250000 0.010000
vt 0.383337 0.050447
vt 0.419706 0.080294
vt 0.449553 0.116663
vt 0.485388 0.203178
vt 0.490000 0.250000
vt 0.485388 0.296822
vt 0.471731 0.341844
vt 0.449553 0.383337
vt 0.419706 0.419706
vt 0.383337 0.449553
vt 0.000000 1.000000
vt 0.750000 0.490000
vt 0.883337 0.449553
vt 0.796822 0.485388
vt 0.841844 0.471731
vt 0.919706 0.419706
vt 0.985388 0.296822
vt 0.949553 0.383337
vt 0.971731 0.341844
vt 0.990000 0.250000
vt 0.949553 0.116663
vt 0.985388 0.203178
vt 0.971731 0.158156
vt 0.919706 0.080294
vt 0.883337 0.050447
vt 0.841844 0.028269
vt 0.750000 0.010000
vt 0.703178 0.014612
vt 0.658156 0.028269
vt 0.616663 0.050447
vt 0.580294 0.080294
vt 0.514611 0.203179
vt 0.550447 0.116663
vt 0.528269 0.158156
vt 0.510000 0.250000
vt 0.514612 0.296822
vt 0.528269 0.341844
vt 0.580295 0.419706
vt 0.616663 0.449553
vt 0.658156 0.471731
vt 0.625000 1.000000
vt 0.625000 0.000000
vt 0.875000 0.750000
vn 0.0000 0.0000 1.0000
vn -1.0000 0.0000 0.0000
vn 0.0000 0.0000 -1.0000
vn 1.0000 0.0000 -0.0000
vn 0.0000 1.0000 0.0000
vn 0.0000 -1.0000 -0.0000
vn -0.9952 0.0000 -0.0980
vn -0.9569 0.0000 -0.2903
vn -0.8819 0.0000 -0.4714
vn -0.7730 0.0000 -0.6344
vn -0.6344 0.0000 -0.7730
vn -0.4714 0.0000 -0.8819
vn -0.2903 0.0000 -0.9569
vn -0.0980 0.0000 -0.9952
vn 0.0980 0.0000 -0.9952
vn 0.2903 0.0000 -0.9569
vn 0.4714 0.0000 -0.8819
vn 0.6344 0.0000 -0.7730
vn 0.7730 0.0000 -0.6344
vn 0.8819 0.0000 -0.4714
vn 0.9569 0.0000 -0.2903
vn 0.9952 0.0000 -0.0980
vn 0.9952 0.0000 0.0980
vn 0.9569 0.0000 0.2903
vn 0.8819 0.0000 0.4715
vn 0.7730 0.0000 0.6344
vn 0.6344 0.0000 0.7730
vn 0.4715 0.0000 0.8819
vn 0.2902 0.0000 0.9570
vn 0.0980 0.0000 0.9952
vn -0.0979 0.0000 0.9952
vn -0.2903 0.0000 0.9569
vn -0.4714 0.0000 0.8819
vn -0.6344 0.0000 0.7730
vn -0.7730 0.0000 0.6344
vn -0.8819 0.0000 0.4714
vn -0.9569 0.0000 0.2903
vn -0.9952 0.0000 0.0980
vn 0.0000 -0.7071 0.7071
vn 0.8819 0.0000 0.4714
vn 0.4714 0.0000 0.8819
vn 0.2903 0.0000 0.9569
vn 0.0979 0.0000 0.9952
vn -0.0980 0.0000 0.9952
vn -0.2902 0.0000 0.9570
vn -0.4715 0.0000 0.8819
vn 0.0000 1.0000 -0.0001
vn 0.0000 1.0000 0.0001
vn 0.0000 1.0000 -0.0003
vn 0.0000 1.0000 -0.0005
vn 0.0000 1.0000 0.0002
vn 0.0000 1.0000 0.0005
vn 0.0000 -1.0000 0.0002
vn 0.0000 -1.0000 -0.0003
vn 0.0000 -1.0000 0.0001
vn 0.0000 -1.0000 -0.0001
vn 0.0000 -1.0000 -0.0002
vn 0.0000 -1.0000 0.0003
usemtl Material.005
s off
f 2/1/1 9/2/1 10/3/1
f 4/4/2 11/5/2 9/2/2
f 8/6/3 12/7/3 11/5/3
f 6/8/4 10/9/4 12/7/4
f 5/10/1 15/11/1 7/12/1
f 4/13/5 6/8/5 8/6/5
f 1/14/6 9/15/6 3/16/6
f 3/16/6 11/5/6 7/12/6
f 7/12/6 12/7/6 5/10/6
f 5/10/6 10/17/6 1/14/6
f 15/11/6 14/18/6 13/19/6
f 3/16/3 14/18/3 1/14/3
f 1/20/2 16/21/2 5/22/2
f 7/12/4 13/19/4 3/16/4
usemtl Material.006
f 18/23/7 19/24/7 17/25/7
f 20/26/8 21/27/8 19/24/8
f 22/28/9 23/29/9 21/27/9
f 24/30/10 25/31/10 23/29/10
f 26/32/11 27/33/11 25/31/11
f 28/34/12 29/35/12 27/33/12
f 30/36/13 31/37/13 29/35/13
f 32/38/14 33/39/14 31/37/14
f 34/40/15 35/41/15 33/39/15
f 36/42/16 37/43/16 35/41/16
f 38/44/17 39/45/17 37/43/17
f 40/46/18 41/47/18 39/45/18
f 42/48/19 43/49/19 41/47/19
f 44/50/20 45/51/20 43/49/20
f 46/52/21 47/53/21 45/51/21
f 48/54/22 49/55/22 47/53/22
f 50/56/23 51/57/23 49/55/23
f 52/58/24 53/59/24 51/57/24
f 54/60/25 55/61/25 53/59/25
f 56/62/26 57/63/26 55/61/26
f 58/64/27 59/65/27 57/63/27
f 60/66/28 61/67/28 59/65/28
f 62/68/29 63/69/29 61/67/29
f 64/70/30 65/71/30 63/69/30
f 66/72/31 67/73/31 65/71/31
f 68/74/32 69/75/32 67/73/32
f 70/76/33 71/77/33 69/75/33
f 72/78/34 73/79/34 71/77/34
f 74/80/35 75/81/35 73/79/35
f 76/82/36 77/83/36 75/81/36
f 46/84/5 38/85/5 22/86/5
f 78/87/37 79/88/37 77/83/37
f 80/89/38 17/90/38 79/88/38
f 71/91/6 79/92/6 47/93/6
usemtl Material.007
f 84/94/4 81/95/4 88/96/4
f 86/97/3 83/98/3 85/99/3
f 90/100/2 86/97/2 85/99/2
f 87/101/1 82/102/1 90/100/1
f 82/103/5 84/94/5 86/97/5
f 88/104/39 90/100/39 89/105/39
f 89/106/1 83/98/1 88/96/1
usemtl Material.005
f 2/1/1 4/4/1 9/2/1
f 4/4/2 8/6/2 11/5/2
f 8/6/3 6/8/3 12/7/3
f 6/8/4 2/107/4 10/9/4
f 5/10/1 16/108/1 15/11/1
f 4/13/5 2/109/5 6/8/5
f 1/14/6 10/17/6 9/15/6
f 3/16/6 9/15/6 11/5/6
f 7/12/6 11/5/6 12/7/6
f 5/10/6 12/7/6 10/17/6
f 15/11/6 16/108/6 14/18/6
f 3/16/3 13/19/3 14/18/3
f 1/20/2 14/110/2 16/21/2
f 7/12/4 15/11/4 13/19/4
usemtl Material.006
f 18/23/7 20/26/7 19/24/7
f 20/26/8 22/28/8 21/27/8
f 22/28/9 24/30/9 23/29/9
f 24/30/10 26/32/10 25/31/10
f 26/32/11 28/34/11 27/33/11
f 28/34/12 30/36/12 29/35/12
f 30/36/13 32/38/13 31/37/13
f 32/38/14 34/40/14 33/39/14
f 34/40/15 36/42/15 35/41/15
f 36/42/16 38/44/16 37/43/16
f 38/44/17 40/46/17 39/45/17
f 40/46/18 42/48/18 41/47/18
f 42/48/19 44/50/19 43/49/19
f 44/50/20 46/52/20 45/51/20
f 46/52/21 48/54/21 47/53/21
f 48/54/22 50/56/22 49/55/22
f 50/56/23 52/58/23 51/57/23
f 52/58/24 54/60/24 53/59/24
f 54/60/40 56/62/40 55/61/40
f 56/62/26 58/64/26 57/63/26
f 58/64/27 60/66/27 59/65/27
f 60/66/41 62/68/41 61/67/41
f 62/68/42 64/70/42 63/69/42
f 64/70/43 66/72/43 65/71/43
f 66/72/44 68/74/44 67/73/44
f 68/74/45 70/76/45 69/75/45
f 70/76/46 72/78/46 71/77/46
f 72/78/34 74/80/34 73/79/34
f 74/80/35 76/82/35 75/81/35
f 76/82/36 78/87/36 77/83/36
f 22/86/47 20/111/47 18/112/47
f 18/112/48 80/113/48 78/114/48
f 78/114/49 76/115/49 74/116/49
f 74/116/50 72/117/50 70/118/50
f 70/118/50 68/119/50 66/120/50
f 66/120/5 64/121/5 62/122/5
f 62/122/5 60/123/5 58/124/5
f 58/124/5 56/125/5 54/126/5
f 54/126/5 52/127/5 48/128/5
f 52/127/5 50/129/5 48/128/5
f 48/128/5 46/84/5 54/126/5
f 46/84/51 44/130/51 38/85/51
f 44/130/49 42/131/49 38/85/49
f 42/131/5 40/132/5 38/85/5
f 38/85/5 36/133/5 34/134/5
f 34/134/5 32/135/5 30/136/5
f 30/136/52 28/137/52 26/138/52
f 26/138/49 24/139/49 30/136/49
f 24/139/5 22/86/5 30/136/5
f 22/86/5 18/112/5 78/114/5
f 78/114/48 74/116/48 70/118/48
f 70/118/5 66/120/5 54/126/5
f 66/120/5 62/122/5 54/126/5
f 62/122/5 58/124/5 54/126/5
f 38/85/5 34/134/5 22/86/5
f 34/134/5 30/136/5 22/86/5
f 22/86/5 78/114/5 54/126/5
f 78/114/5 70/118/5 54/126/5
f 54/126/5 46/84/5 22/86/5
f 78/87/37 80/89/37 79/88/37
f 80/89/38 18/140/38 17/90/38
f 79/92/6 17/141/6 23/142/6
f 17/141/6 19/143/6 23/142/6
f 19/143/6 21/144/6 23/142/6
f 23/142/6 25/145/6 31/146/6
f 25/145/6 27/147/6 31/146/6
f 27/147/6 29/148/6 31/146/6
f 31/146/6 33/149/6 39/150/6
f 33/149/53 35/151/53 39/150/53
f 35/151/54 37/152/54 39/150/54
f 39/150/55 41/153/55 47/93/55
f 41/153/6 43/154/6 47/93/6
f 43/154/6 45/155/6 47/93/6
f 47/93/6 49/156/6 51/157/6
f 51/157/6 53/158/6 55/159/6
f 55/159/56 57/160/56 63/161/56
f 57/160/57 59/162/57 63/161/57
f 59/162/58 61/163/58 63/161/58
f 63/161/58 65/164/58 67/165/58
f 67/165/6 69/166/6 71/91/6
f 71/91/56 73/167/56 75/168/56
f 75/168/6 77/169/6 71/91/6
f 77/169/6 79/92/6 71/91/6
f 47/93/6 51/157/6 63/161/6
f 51/157/6 55/159/6 63/161/6
f 63/161/56 67/165/56 71/91/56
f 79/92/6 23/142/6 47/93/6
f 23/142/6 31/146/6 47/93/6
f 31/146/6 39/150/6 47/93/6
f 63/161/6 71/91/6 47/93/6
usemtl Material.007
f 88/96/1 83/98/1 84/94/1
f 81/95/1 87/170/1 88/96/1
f 86/97/3 84/94/3 83/98/3
f 90/100/1 82/102/1 86/97/1
f 85/99/1 89/106/1 90/100/1
f 87/101/1 81/171/1 82/102/1
f 82/103/5 81/172/5 84/94/5
f 88/104/39 87/101/39 90/100/39
f 89/106/1 85/99/1 83/98/1
